<?xml version="1.0" encoding="UTF-8" standalone="no"?>
<!DOCTYPE svg PUBLIC "-//W3C//DTD SVG 1.1//EN" "http://www.w3.org/Graphics/SVG/1.1/DTD/svg11.dtd">
<svg width="100%" height="100%" viewBox="0 0 106 40" version="1.1" xmlns="http://www.w3.org/2000/svg" xmlns:xlink="http://www.w3.org/1999/xlink" xml:space="preserve" xmlns:serif="http://www.serif.com/" style="fill-rule:evenodd;clip-rule:evenodd;stroke-linejoin:round;stroke-miterlimit:2;">
    <g transform="matrix(1,0,0,1,-708.266,-540.883)">
        <g transform="matrix(1.4074,0,0,1.4074,-288.547,-220.355)">
            <g transform="matrix(1.16584,0,0,3.47647,77.9666,-1587.18)">
                <path d="M605.058,616.208C605.058,618.456 599.615,620.281 592.91,620.281L552.786,620.281C546.081,620.281 540.638,618.456 540.638,616.208C540.638,613.959 546.081,612.134 552.786,612.134L592.91,612.134C599.615,612.134 605.058,613.959 605.058,616.208Z"/>
            </g>
            <g transform="matrix(1,0,0,1,166.276,-61.6396)">
                <g transform="matrix(1,0,0,1,179.51,198.35)">
                    <path d="M379.154,413.952L379.154,424.618L377.272,426.482L372.549,426.482L370.928,424.879L370.928,423.694L373.228,423.694L373.228,424.217L373.56,424.565L376.261,424.565L376.853,423.955L376.853,421.498L375.651,422.631L372.374,422.631L370.579,420.818L370.579,415.764L372.374,413.952L375.79,413.952L377.028,415.137L377.028,413.952L379.154,413.952ZM376.853,416.967L375.668,415.904L373.542,415.904L372.88,416.583L372.88,419.999L373.542,420.679L375.442,420.679L376.853,419.232L376.853,416.967Z" style="fill:white;fill-rule:nonzero;"/>
                    <path d="M388.513,420.853L388.513,415.886L386.944,415.886L386.944,413.952L388.548,413.952L388.548,411.128L390.813,411.128L390.813,413.952L393.462,413.952L393.462,415.904L390.813,415.904L390.813,420.104L391.406,420.679L393.462,420.679L393.462,422.631L390.308,422.631L388.513,420.853Z" style="fill:white;fill-rule:nonzero;"/>
                    <path d="M396.077,421.027L396.077,410.187L397.366,410.187L397.366,415.642L399.057,413.952L402.107,413.952L403.71,415.555L403.71,421.027L402.107,422.631L397.68,422.631L396.077,421.027ZM401.549,421.481L402.42,420.627L402.42,415.956L401.549,415.102L399.423,415.102L397.366,417.158L397.366,420.627L398.238,421.481L401.549,421.481Z" style="fill:white;fill-rule:nonzero;"/>
                    <path d="M405.017,421.202L405.017,418.988L406.446,417.577L411.082,417.577L411.082,415.921L410.211,415.067L407.248,415.067L406.377,415.921L406.377,416.636L405.087,416.636L405.087,415.555L406.69,413.952L410.751,413.952L412.354,415.555L412.354,422.631L411.117,422.631L411.117,421.097L409.514,422.631L406.446,422.631L405.017,421.202ZM409.252,421.515L411.082,419.755L411.082,418.692L407.004,418.692L406.307,419.372L406.307,420.836L407.004,421.515L409.252,421.515Z" style="fill:white;fill-rule:nonzero;"/>
                    <path d="M413.574,421.202L413.574,420.121L414.864,420.121L414.864,420.836L415.561,421.515L418.768,421.515L419.465,420.836L419.465,419.494L418.768,418.797L415.021,418.797L413.644,417.42L413.644,415.381L415.073,413.952L419.151,413.952L420.58,415.381L420.58,416.461L419.291,416.461L419.291,415.747L418.594,415.067L415.631,415.067L414.934,415.747L414.934,417.019L415.631,417.716L419.326,417.716L420.755,419.145L420.755,421.202L419.326,422.631L415.003,422.631L413.574,421.202Z" style="fill:white;fill-rule:nonzero;"/>
                    <path d="M421.887,421.027L421.887,415.555L423.491,413.952L427.865,413.952L429.486,415.555L429.486,418.675L423.177,418.675L423.177,420.627L424.049,421.481L427.308,421.481L428.179,420.627L428.179,419.964L429.469,419.964L429.469,421.027L427.865,422.631L423.491,422.631L421.887,421.027ZM428.196,417.559L428.196,415.956L427.325,415.102L424.049,415.102L423.177,415.956L423.177,417.559L428.196,417.559Z" style="fill:white;fill-rule:nonzero;"/>
                </g>
                <g transform="matrix(0.556624,0,0,0.556624,421.964,467.689)">
                    <path d="M259.648,267.346L252.464,278.482C252.276,278.773 251.824,278.64 251.824,278.293L251.824,269.065C251.824,268.779 251.591,268.546 251.305,268.546L248.377,268.546C248.102,268.546 247.936,268.241 248.085,268.01L255.269,256.874C255.457,256.583 255.909,256.716 255.909,257.063L255.909,266.291C255.909,266.577 256.142,266.81 256.429,266.81L259.356,266.81C259.631,266.81 259.798,267.115 259.648,267.346Z" style="fill:rgb(198,255,0);fill-rule:nonzero;"/>
                </g>
            </g>
        </g>
    </g>
</svg>
