<?xml version="1.0" encoding="UTF-8" standalone="no"?>
<!DOCTYPE svg PUBLIC "-//W3C//DTD SVG 1.1//EN" "http://www.w3.org/Graphics/SVG/1.1/DTD/svg11.dtd">
<svg width="100%" height="100%" viewBox="0 0 20 20" version="1.1" xmlns="http://www.w3.org/2000/svg" xmlns:xlink="http://www.w3.org/1999/xlink" xml:space="preserve" xmlns:serif="http://www.serif.com/" style="fill-rule:evenodd;clip-rule:evenodd;stroke-linejoin:round;stroke-miterlimit:2;">
    <g transform="matrix(1,0,0,1,-828.615,-551.315)">
        <g transform="matrix(1,0,0,1,208.897,57.8756)">
            <g transform="matrix(0.866025,0.5,-0.5,0.866025,490.239,113.612)">
                <path d="M323.776,269.415L320.903,274.39C319.365,277.055 315.952,277.97 313.286,276.431L308.311,273.558C305.646,272.02 304.731,268.607 306.27,265.941L309.143,260.966C310.681,258.301 314.094,257.386 316.76,258.925L321.735,261.798C324.4,263.336 325.315,266.749 323.776,269.415Z"/>
            </g>
            <g transform="matrix(1,0,0,1,314.195,235.262)">
                <path d="M319.124,267.443L314.028,275.341C313.895,275.548 313.574,275.454 313.574,275.208L313.574,268.662C313.574,268.459 313.409,268.294 313.206,268.294L311.129,268.294C310.934,268.294 310.816,268.078 310.922,267.913L316.018,260.015C316.151,259.808 316.472,259.902 316.472,260.148L316.472,266.694C316.472,266.897 316.637,267.062 316.84,267.062L318.917,267.062C319.112,267.062 319.23,267.278 319.124,267.443Z" style="fill:rgb(198,255,0);fill-rule:nonzero;"/>
            </g>
        </g>
    </g>
</svg>
